<svg xmlns="http://www.w3.org/2000/svg" viewBox="0 0 412.409 104">
  <defs>
    <style>
      .cls-1, .cls-2 {
        fill: #454545;
      }

      .cls-1 {
        font-size: 78px;
        font-family: SegoeUI-Bold, Segoe UI;
        font-weight: 700;
      }

      .cls-2 {
        fill-rule: evenodd;
      }
    </style>
  </defs>
  <g id="Group_92" data-name="Group 92" transform="translate(-514.923 -2447)">
    <text id="COSMOS" class="cls-1" transform="translate(598.332 2531)"><tspan x="0" y="0">COSMOS</tspan></text>
    <path id="Path_357" data-name="Path 357" class="cls-2" d="M499.842,452.753a17.754,17.754,0,0,1,8.625,2.4,27.2,27.2,0,0,1,7.154,6.013,22.364,22.364,0,0,1,4.267,7.184,16.6,16.6,0,0,1,.8,7.663,16.839,16.839,0,0,1-4.121,8.973c-.365.435-.744.865-1.116,1.29a1.991,1.991,0,0,0-.325,2.043,3.8,3.8,0,0,0,.708.952,30.954,30.954,0,0,1,2.093,2.59c.218.311.413.639.6.97a16.691,16.691,0,0,1,.181,16.634,27.064,27.064,0,0,1-6.61,7.958,22.3,22.3,0,0,1-6.281,3.785,16.567,16.567,0,0,1-9.276.809,18.213,18.213,0,0,1-5.9-2.418,23.524,23.524,0,0,1-3.158-2.541,2.057,2.057,0,0,0-1.225-.539,1.969,1.969,0,0,0-1.422.491,31.915,31.915,0,0,1-2.713,2.257c-.262.186-.534.355-.809.52a16.6,16.6,0,0,1-16.621.639,26.157,26.157,0,0,1-7.447-5.811,22.794,22.794,0,0,1-4.946-8.1,16.515,16.515,0,0,1-.564-8.365,18.307,18.307,0,0,1,2.579-6.279l.078-.12a26.5,26.5,0,0,1,2.343-2.858,2.023,2.023,0,0,0,.384-2.116,3.491,3.491,0,0,0-.654-.885,21.976,21.976,0,0,1-2.194-2.739,17.913,17.913,0,0,1-2.741-7.553,17.226,17.226,0,0,1,1.681-9.266,25.622,25.622,0,0,1,5.475-7.325,23.516,23.516,0,0,1,7.7-5.09,16.643,16.643,0,0,1,7.789-1.081,17.9,17.9,0,0,1,7.64,2.783,23.455,23.455,0,0,1,2.972,2.415,2.024,2.024,0,0,0,2.125.384,3.452,3.452,0,0,0,.875-.649,21.75,21.75,0,0,1,2.775-2.216,17.493,17.493,0,0,1,9.2-2.8Zm-25.978,26.839a3.29,3.29,0,0,1,2.255.942c4.718,1.639,5.245,12.52.014,14.01a3.307,3.307,0,0,1-3.008.885,3.661,3.661,0,0,1-1.107-.471,5.756,5.756,0,0,0-3.744-.877,5.177,5.177,0,0,0-4.241,4.127,6.6,6.6,0,0,0,.723,3.843,15.283,15.283,0,0,0,3.087,4.115,13.055,13.055,0,0,0,4.9,3.275,5.577,5.577,0,0,0,3.384.149,5.187,5.187,0,0,0,3.528-4.333,5.777,5.777,0,0,0-.948-3.583s-.088-.143-.155-.277a3.246,3.246,0,0,1,.6-3.736c1.873-5.553,12.612-4.308,13.956-.007a3.308,3.308,0,0,1,.873,3.016,3.63,3.63,0,0,1-.467,1.09,5.731,5.731,0,0,0-.89,3.566,5.241,5.241,0,0,0,2.185,3.6,4.711,4.711,0,0,0,2.8.868,7.512,7.512,0,0,0,3.44-1.025,16.476,16.476,0,0,0,4.362-3.64,12.161,12.161,0,0,0,2.568-4.225,5.4,5.4,0,0,0-.008-3.65,5.342,5.342,0,0,0-2.286-2.579,4.819,4.819,0,0,0-2.984-.6,6.358,6.358,0,0,0-2.551.949s-.146.089-.276.153a3.247,3.247,0,0,1-3.721-.608c-5.5-1.338-5.185-12.223-.017-14.01a3.309,3.309,0,0,1,2.991-.888c.394.085,3.551,1.536,4.854,1.353a5.152,5.152,0,0,0,4.255-4.138,6.587,6.587,0,0,0-.714-3.811,15.225,15.225,0,0,0-3.1-4.139,12.5,12.5,0,0,0-5.182-3.363,5.438,5.438,0,0,0-3.1-.06,5.192,5.192,0,0,0-3.527,4.333,5.825,5.825,0,0,0,.948,3.583s.037.06.064.106a3.247,3.247,0,0,1-.512,3.907c-1.488,4.338-12.324,4.485-13.956.006a3.308,3.308,0,0,1-.873-3.016,3.594,3.594,0,0,1,.467-1.09,5.713,5.713,0,0,0,.889-3.58,5.24,5.24,0,0,0-2.184-3.587,4.7,4.7,0,0,0-2.829-.868,8.1,8.1,0,0,0-4.1,1.434,17.521,17.521,0,0,0-3.7,3.256,12.011,12.011,0,0,0-2.553,4.222,5.07,5.07,0,0,0,4.055,6.806,5.822,5.822,0,0,0,3.779-.948s.122-.074.229-.13A3.275,3.275,0,0,1,473.865,479.592Z" transform="translate(63.478 2014.067)"/>
  </g>
</svg>
