<svg xmlns="http://www.w3.org/2000/svg" viewBox="0 0 19.74 20.987">
  <defs>
    <style>
      .cls-1 {
        fill: none;
      }

      .cls-2, .cls-3 {
        stroke: none;
      }

      .cls-3 {
        fill: #17394c;
      }
    </style>
  </defs>
  <g id="Edit-01" transform="translate(3 3)">
    <g id="XMLID_6_" class="cls-1" transform="translate(-20.5 -20.6)">
      <path class="cls-2" d="M20.5,32.447v3.139h2.873l8.444-9.227-2.873-3.139Zm13.515-8.49a.878.878,0,0,0,0-1.174l-1.774-1.938a.71.71,0,0,0-1.074,0l-1.4,1.5,2.848,3.112Z"/>
      <path class="cls-3" d="M 23.37295722961426 35.58674621582031 L 31.81692695617676 26.35993766784668 L 28.94397735595703 23.22063636779785 L 20.49999809265137 32.44744873046875 L 20.49999809265137 35.58674621582031 L 23.37295722961426 35.58674621582031 M 32.61635589599609 25.45909690856934 L 34.0153694152832 23.95768737792969 C 34.31514739990234 23.63010787963867 34.31514739990234 23.11144638061523 34.0153694152832 22.78386688232422 L 32.24162673950195 20.84568786621094 C 32.09173583984375 20.68189811706543 31.89812469482422 20.60000228881836 31.70451164245605 20.60000228881836 C 31.51090049743652 20.60000228881836 31.31728744506836 20.68189811706543 31.16739845275879 20.84568786621094 L 29.76839828491211 22.34708786010742 L 32.61635589599609 25.45909690856934 M 24.69413757324219 38.58674621582031 L 23.37295722961426 38.58674621582031 L 20.49999809265137 38.58674621582031 L 17.49999809265137 38.58674621582031 L 17.49999809265137 35.58674621582031 L 17.49999809265137 32.44744873046875 L 17.49999809265137 31.28191757202148 L 18.28686714172363 30.42208671569824 L 25.68926048278809 22.33342742919922 L 25.68497657775879 22.3287467956543 L 26.1647834777832 21.81382179260254 L 26.73084831237793 21.19527816772461 L 28.94397735595703 18.7769775390625 L 28.9690055847168 18.80432510375977 C 29.67783737182617 18.03866004943848 30.67357635498047 17.60000801086426 31.70451736450195 17.60000801086426 C 32.74261856079102 17.60000801086426 33.74504852294922 18.04480743408203 34.45477676391602 18.82035636901855 L 36.22849655151367 20.75850677490234 C 36.88090896606445 21.47142791748047 37.24020767211914 22.39914703369141 37.24020767211914 23.37077713012695 C 37.24020767211914 24.3424072265625 36.88090896606445 25.27012634277344 36.228515625 25.98301696777344 L 36.21940612792969 25.99296760559082 L 36.2102165222168 26.00283813476563 L 35.88054656982422 26.35663795471191 L 35.88356781005859 26.35993766784668 L 34.03005599975586 28.38529777526855 L 25.58608818054199 37.61210632324219 L 24.69413757324219 38.58674621582031 Z"/>
    </g>
  </g>
</svg>
